<svg xmlns="http://www.w3.org/2000/svg" viewBox="0 0 64 64">
  <rect width="64" height="64" rx="16" fill="#E8470A"/>
  <path fill="#fff" d="M32 8c-11 0-20 8.9-20 19.8 0 13 15.2 27.6 18.7 30.8a1.9 1.9 0 0 0 2.6 0C36.8 55.4 52 40.8 52 27.8 52 16.9 43 8 32 8Z"/>
  <path fill="#E8470A" d="M32 15.5c-7.3 0-13.2 5.7-13.2 12.8 0 6.9 5.9 12.5 13.2 12.5s13.2-5.6 13.2-12.5c0-7.1-5.9-12.8-13.2-12.8Z"/>
  <path fill="#fff" d="M22.5 28.8c0 4.8 4.3 8.3 9.5 8.3s9.5-3.5 9.5-8.3H22.5Z"/>
  <path fill="#fff" d="M39.7 21.4c1.1 0 2 .9 2 2v5.2h-4v-5.2c0-1.1.9-2 2-2Z"/>
  <path fill="#fff" d="M25.2 22.2c.6 0 1.1.5 1.1 1.1v4.6h-2.2v-4.6c0-.6.5-1.1 1.1-1.1Zm3.3 0c.6 0 1.1.5 1.1 1.1v4.6h-2.2v-4.6c0-.6.5-1.1 1.1-1.1Z"/>
</svg>
